<svg xmlns="http://www.w3.org/2000/svg" width="128" height="128" viewBox="0 0 96 96"  xmlns:v="https://vecta.io/nano"><defs><clipPath id="A"><path d="M4.047 32.832h87.738V95.25H4.047zm0 0"/></clipPath></defs><g fill="rgb(27.449036%,75.689697%,6.669617%)"><path d="M38.613 29.879l9.363-5.16 9.426 5.027-1.863-10.773 7.547-7.695-10.512-1.496L47.809 0 43.18 9.848l-10.492 1.648 7.648 7.582-1.723 10.801m-6.699 31.855v5.891h14.414v-5.891H43.57V55h8.453v6.734h-2.625v5.891h14.461v-5.891h-2.582V42.328h2.582v-5.887H49.398v5.887h2.625v6.738H43.57v-6.738h2.758v-5.887H31.914v5.887h2.445v19.406h-2.445"/><path d="M67.73 33.594l7.008-3.863 7.063 3.766-1.395-8.07 5.652-5.762-7.875-1.121-3.566-7.324-3.469 7.375-7.859 1.234 5.73 5.68-1.289 8.086m-53.527-.001l7.012-3.863 7.063 3.766-1.398-8.07 5.652-5.762-7.875-1.121-3.566-7.324-3.469 7.375-7.859 1.234 5.73 5.68-1.289 8.086m-.579 3.561a37.01 37.01 0 0 0-2.781 14.105c0 20.496 16.633 37.172 37.074 37.172s37.07-16.676 37.07-37.172a37.08 37.08 0 0 0-2.836-14.254L78 39.957a32.12 32.12 0 0 1 2.047 11.305c0 17.762-14.414 32.215-32.129 32.215S15.789 69.023 15.789 51.262a32.11 32.11 0 0 1 1.988-11.156l-4.152-2.949"/></g><g clip-path="url(#A)"><path d="M87.809 32.988l-2.055 1.461a41.35 41.35 0 0 1 3.563 16.813c0 22.891-18.574 41.508-41.398 41.508S6.52 74.152 6.52 51.262a41.35 41.35 0 0 1 3.496-16.668l-2.055-1.461c-2.504 5.531-3.914 11.668-3.914 18.129 0 24.254 19.68 43.988 43.871 43.988s43.867-19.734 43.867-43.988c0-6.52-1.43-12.703-3.977-18.273" fill="rgb(27.449036%,75.689697%,6.669617%)"/></g></svg>