<?xml version="1.0" encoding="UTF-8"?>
<svg xmlns="http://www.w3.org/2000/svg" xmlns:xlink="http://www.w3.org/1999/xlink" width="96pt" height="95.999999pt" viewBox="0 0 96 95.999999" version="1.2">
<defs>
<clipPath id="clip1">
  <path d="M 14 0 L 81.96875 0 L 81.96875 72 L 14 72 Z M 14 0 "/>
</clipPath>
</defs>
<g id="surface1">
<path style=" stroke:none;fill-rule:nonzero;fill:rgb(36.468506%,42.749023%,49.409485%);fill-opacity:1;" d="M 31.503906 96 L 31.503906 63.386719 L 63.789062 63.386719 Z M 31.503906 96 "/>
<path style=" stroke:none;fill-rule:nonzero;fill:rgb(20.388794%,28.62854%,36.859131%);fill-opacity:1;" d="M 63.789062 96 L 63.789062 63.386719 L 31.503906 63.386719 Z M 63.789062 96 "/>
<g clip-path="url(#clip1)" clip-rule="nonzero">
<path style=" stroke:none;fill-rule:nonzero;fill:rgb(100%,43.919373%,34.899902%);fill-opacity:1;" d="M 43.765625 2.527344 C 45.894531 -0.015625 49.390625 -0.015625 51.527344 2.527344 L 52.582031 3.78125 C 54.71875 6.328125 59.085938 7.765625 62.292969 6.96875 L 63.875 6.585938 C 67.085938 5.789062 69.910156 7.867188 70.152344 11.199219 L 70.273438 12.832031 C 70.519531 16.160156 73.226562 19.914062 76.28125 21.179688 L 77.785156 21.804688 C 80.839844 23.070312 81.921875 26.425781 80.183594 29.265625 L 79.332031 30.660156 C 77.59375 33.5 77.59375 38.140625 79.332031 40.980469 L 80.183594 42.375 C 81.921875 45.21875 80.839844 48.570312 77.785156 49.839844 L 76.28125 50.457031 C 73.226562 51.722656 70.519531 55.480469 70.273438 58.8125 L 70.152344 60.445312 C 69.910156 63.777344 67.085938 65.847656 63.875 65.058594 L 62.292969 64.667969 C 59.085938 63.875 54.71875 65.308594 52.582031 67.859375 L 51.527344 69.109375 C 49.390625 71.65625 45.898438 71.65625 43.765625 69.109375 L 42.710938 67.859375 C 40.574219 65.3125 36.207031 63.875 32.996094 64.667969 L 31.417969 65.058594 C 28.207031 65.847656 25.378906 63.777344 25.136719 60.445312 L 25.015625 58.8125 C 24.765625 55.480469 22.0625 51.722656 19.007812 50.457031 L 17.507812 49.839844 C 14.449219 48.574219 13.371094 45.21875 15.105469 42.375 L 15.964844 40.980469 C 17.699219 38.140625 17.699219 33.5 15.957031 30.660156 L 15.105469 29.265625 C 13.371094 26.425781 14.449219 23.070312 17.503906 21.804688 L 19.007812 21.179688 C 22.0625 19.914062 24.769531 16.160156 25.015625 12.832031 L 25.136719 11.199219 C 25.378906 7.867188 28.207031 5.789062 31.414062 6.585938 L 32.996094 6.96875 C 36.203125 7.765625 40.574219 6.328125 42.710938 3.78125 Z M 43.765625 2.527344 "/>
</g>
<path style=" stroke:none;fill-rule:nonzero;fill:rgb(100%,77.249146%,31.369019%);fill-opacity:1;" d="M 72.636719 35.800781 C 72.636719 49.746094 61.453125 61.066406 47.652344 61.066406 C 33.835938 61.066406 22.65625 49.746094 22.65625 35.800781 C 22.65625 21.863281 33.835938 10.574219 47.652344 10.574219 C 61.453125 10.574219 72.636719 21.863281 72.636719 35.800781 Z M 72.636719 35.800781 "/>
<path style=" stroke:none;fill-rule:nonzero;fill:rgb(100%,81.959534%,37.649536%);fill-opacity:1;" d="M 47.652344 55.8125 C 36.714844 55.8125 27.859375 46.835938 27.859375 35.800781 C 27.859375 24.777344 36.714844 15.796875 47.652344 15.796875 C 58.570312 15.796875 67.460938 24.777344 67.460938 35.800781 C 67.457031 46.835938 58.570312 55.8125 47.652344 55.8125 Z M 47.652344 55.8125 "/>
<path style=" stroke:none;fill-rule:nonzero;fill:rgb(96.859741%,71.369934%,30.198669%);fill-opacity:1;" d="M 29.445312 37.40625 C 29.445312 26.382812 38.304688 17.402344 49.238281 17.402344 C 54.292969 17.402344 58.914062 19.328125 62.417969 22.492188 C 58.789062 18.386719 53.515625 15.796875 47.652344 15.796875 C 36.714844 15.796875 27.859375 24.777344 27.859375 35.800781 C 27.859375 41.730469 30.417969 47.0625 34.480469 50.726562 C 31.347656 47.183594 29.445312 42.519531 29.445312 37.40625 Z M 29.445312 37.40625 "/>
<path style=" stroke:none;fill-rule:nonzero;fill:rgb(96.859741%,71.369934%,30.198669%);fill-opacity:1;" d="M 47.644531 23.117188 L 51.730469 31.476562 L 60.867188 32.824219 L 54.257812 39.328125 L 55.820312 48.523438 L 47.644531 44.1875 L 39.472656 48.523438 L 41.03125 39.328125 L 34.425781 32.824219 L 43.558594 31.476562 Z M 47.644531 23.117188 "/>
</g>
</svg>
