<svg xmlns="http://www.w3.org/2000/svg" width="128" height="128" viewBox="0 0 96 96"  xmlns:v="https://vecta.io/nano"><style><![CDATA[.B{fill:rgb(9.408569%,21.179199%,31.759644%)}.C{fill:rgb(100%,100%,100%)}]]></style><defs><clipPath id="A"><path d="M.059 0H96v96H.059zm0 0"/></clipPath><clipPath id="B"><path d="M.059 83H96v13H.059zm0 0"/></clipPath></defs><g clip-path="url(#A)"><path d="M96.184 48.07C96.184 74.543 74.668 96 48.129 96S.07 74.543.07 48.07 21.586.141 48.129.141s48.055 21.461 48.055 47.93zm0 0" fill="rgb(98.429871%,74.119568%,36.859131%)"/></g><path d="M1.574 94.504h93.109v-9.586H1.574zm0 0" fill="rgb(87.838745%,89.408875%,90.979004%)"/><g clip-path="url(#B)" class="B"><path d="M94.684 96H1.574C.672 96 .07 95.398.07 94.504v-9.586c0-.902.602-1.5 1.504-1.5h93.109c.902 0 1.5.598 1.5 1.5v9.586c0 .895-.598 1.496-1.5 1.496zM3.074 93.004h90.109v-6.59H3.074zm0 0"/></g><path d="M7.578 85.066h18.625V42.98H7.578zm0 0" class="C"/><path d="M26.203 86.414H7.578c-.898 0-1.5-.598-1.5-1.496V42.98c0-.898.602-1.5 1.5-1.5h18.625c.898 0 1.5.602 1.5 1.5v42.086c0 .75-.75 1.348-1.5 1.348zM9.082 83.418h15.617V44.477H9.082zm0 0" class="B"/><path d="M38.816 85.367h18.621V29.199H38.816zm0 0" class="C"/><path d="M57.438 86.863H38.816c-.902 0-1.5-.598-1.5-1.496V29.199c0-.898.598-1.496 1.5-1.496h18.621c.902 0 1.504.598 1.504 1.496v56.168c0 .746-.75 1.496-1.504 1.496zM40.32 83.867h15.617V30.695H40.32zm0 0" class="B"/><path d="M70.055 85.066h18.621V49.719H70.055zm0 0" class="C"/><path d="M88.676 86.414H70.055c-.902 0-1.504-.598-1.504-1.496V49.719c0-.898.602-1.496 1.504-1.496h18.621c.902 0 1.504.598 1.504 1.496v35.348c0 .75-.754 1.348-1.504 1.348zm-17.121-2.996h15.621V51.215H71.555zm0 0" class="B"/><path d="M7.578 72.336h18.625V42.98H7.578zm0 0" fill="rgb(18.03894%,62.748718%,85.488892%)"/><path d="M26.203 73.832c-.902 0-1.504-.598-1.504-1.496V44.477H9.082v27.859c0 .898-.602 1.496-1.504 1.496s-1.5-.598-1.5-1.496V42.98c0-.898.602-1.5 1.5-1.5h18.625c.898 0 1.5.602 1.5 1.5v29.355c0 .75-.75 1.496-1.5 1.496zm0 0" class="B"/><path d="M38.816 72.336h18.621V29.199H38.816zm0 0" fill="rgb(94.119263%,38.038635%,31.759644%)"/><path d="M57.438 73.832c-.898 0-1.5-.598-1.5-1.496V30.695H40.32v41.641c0 .898-.602 1.496-1.504 1.496s-1.5-.598-1.5-1.496V29.199c0-.898.598-1.496 1.5-1.496h18.621c.902 0 1.504.598 1.504 1.496v43.137c0 .75-.75 1.496-1.504 1.496zm0 0" class="B"/><path d="M70.055 72.336h18.621V49.719H70.055zm0 0" fill="rgb(30.979919%,74.899292%,62.348938%)"/><path d="M88.676 73.832c-.902 0-1.5-.598-1.5-1.496V51.215H71.555v21.121c0 .898-.602 1.496-1.5 1.496s-1.504-.598-1.504-1.496V49.719c0-.898.602-1.496 1.504-1.496h18.621c.902 0 1.504.598 1.504 1.496v22.617c0 .75-.754 1.496-1.504 1.496zm0 0" class="B"/><path d="M20.195 55.559v1.797h-6.609c0-.598.301-1.348.602-1.945s1.051-1.348 2.102-2.395c.902-.75 1.352-1.352 1.652-1.648.301-.449.453-.75.453-1.199s-.152-.75-.301-1.047c-.301-.301-.602-.301-.902-.301-.449 0-.75.148-.902.301s-.301.598-.449 1.195h-2.102c.148-1.047.449-1.797 1.051-2.246s1.352-.746 2.25-.746c1.055 0 1.805.297 2.254.746.602.602.902 1.199.902 1.949 0 .449-.152.898-.301 1.348a3.2 3.2 0 0 1-.75 1.195c-.301.301-.602.75-1.203 1.199-.602.602-1.051.898-1.199 1.051s-.301.297-.453.598h3.906zm55.868 5.992l1.801-.148c0 .449.148.898.449 1.047.301.301.602.301.902.301.449 0 .75-.152 1.051-.449s.449-.75.449-1.199-.148-.898-.449-1.199-.602-.449-.902-.449-.598 0-.898.152l.148-1.5a2.79 2.79 0 0 0 1.203-.301c.301-.297.449-.598.449-.898a1.13 1.13 0 0 0-.301-.746 1.13 1.13 0 0 0-.75-.301c-.301 0-.602.152-.902.301-.297.297-.297.598-.449 1.047l-1.801-.297c.148-.602.301-1.051.602-1.5.301-.301.598-.598 1.051-.898s.898-.301 1.5-.301c.902 0 1.652.301 2.254.898.449.449.75 1.051.75 1.648 0 .898-.449 1.5-1.504 2.098.602.148 1.055.449 1.355.75s.449.898.449 1.496c0 .898-.301 1.648-.902 2.246s-1.5.898-2.402.898a3.68 3.68 0 0 1-2.25-.746c-.453-.453-.754-1.199-.902-1.949zM48.129 1.641l5.105 11.98 12.914 1.051-9.762 8.535 2.855 12.734-11.113-6.742-11.113 6.742 2.852-12.734-9.762-8.535 12.918-1.051zm0 0" class="C"/><path d="M58.492 37.285l-10.363-6.289-10.363 6.289a1.63 1.63 0 0 1-1.652 0c-.449-.297-.75-.895-.602-1.496l2.703-11.832-9.16-8.086c-.449-.449-.602-1.051-.449-1.648a1.44 1.44 0 0 1 1.352-1.051l12.164-1.047L46.777.891c.301-.598.75-.898 1.352-.898s1.199.301 1.352.898l4.652 11.234 12.168 1.047c.602 0 1.051.449 1.352 1.051s0 1.199-.453 1.648l-9.16 7.938 2.703 11.832c.152.598-.148 1.199-.602 1.496-.449.449-1.051.449-1.648.148zm-10.363-9.582c.301 0 .602 0 .75.148l8.109 4.941-2.102-9.137c-.152-.598 0-1.047.449-1.496l7.207-6.141-9.461-.75c-.598 0-1.051-.449-1.199-.898l-3.754-8.687-3.758 8.539c-.148.449-.75.898-1.199.898l-9.461.75 7.207 6.141c.453.297.602.898.453 1.496l-2.105 9.285 8.109-4.941c.152 0 .453-.148.754-.148zm0 0" class="B"/><path d="M49.629 50.469h-1.801v-6.891c-.602.598-1.504 1.047-2.402 1.348v-1.648c.449-.148 1.051-.449 1.5-.898.602-.449.902-.898 1.203-1.496h1.5zm0 0" class="C"/></svg>