<svg xmlns="http://www.w3.org/2000/svg" xmlns:xlink="http://www.w3.org/1999/xlink" width="128" height="128" viewBox="0 0 96 96" xmlns:v="https://vecta.io/nano"><path d="M48 74c-.004-.945.043-1.891.141-2.828a26.11 26.11 0 0 1 .445-2.801c.203-.922.453-1.832.754-2.73s.648-1.773 1.043-2.633.84-1.695 1.328-2.504a26.32 26.32 0 0 1 1.594-2.344c.574-.75 1.188-1.469 1.84-2.152s1.34-1.332 2.066-1.941a25.93 25.93 0 0 1 2.262-1.703 27.38 27.38 0 0 1 2.438-1.445c.84-.434 1.699-.824 2.582-1.168s1.781-.637 2.695-.879 1.836-.437 2.77-.582a26.3 26.3 0 0 1 2.82-.273c.945-.039 1.891-.027 2.836.039s1.879.18 2.813.344l12.988-12.992c.273-.266.453-.59.543-.961a1.96 1.96 0 0 0-.051-1.102c-.125-.363-.336-.668-.633-.91s-.633-.387-1.012-.434l-28.969-3.836L47.789 1.105c-.094-.156-.203-.297-.332-.422s-.273-.234-.43-.324-.324-.156-.496-.203-.352-.07-.535-.07-.355.023-.531.07-.34.113-.496.203-.301.195-.43.324-.238.266-.332.422L30.703 28.18 1.738 32c-.375.051-.711.195-1.008.438a1.97 1.97 0 0 0-.625.902c-.121.363-.141.73-.055 1.102a1.94 1.94 0 0 0 .539.957l21.242 21.246-5.793 28.957a1.99 1.99 0 0 0 .09 1.098c.137.355.355.648.66.883a1.95 1.95 0 0 0 1.023.398 1.95 1.95 0 0 0 1.082-.199L46 74.234l2.063 1.035L48 74zm0 0" fill="rgb(21.958923%,71.369934%,100%)"/><path d="M96 74l-.105 2.156c-.07.719-.176 1.43-.316 2.137s-.316 1.402-.527 2.094a20.95 20.95 0 0 1-.727 2.031 21.2 21.2 0 0 1-.922 1.953 22.09 22.09 0 0 1-1.109 1.852l-1.285 1.734-1.453 1.598c-.508.512-1.043.996-1.598 1.453l-1.734 1.285-1.852 1.109a21.2 21.2 0 0 1-1.953.922 20.95 20.95 0 0 1-2.031.727l-2.094.527c-.707.141-1.418.246-2.137.316L74 96c-.719 0-1.437-.035-2.156-.105l-2.137-.316-2.094-.527a20.95 20.95 0 0 1-2.031-.727 21.2 21.2 0 0 1-1.953-.922l-1.852-1.109-1.734-1.285-1.598-1.453c-.512-.508-.996-1.043-1.453-1.598l-1.285-1.734-1.109-1.852-.922-1.953a20.95 20.95 0 0 1-.727-2.031l-.527-2.094-.316-2.137L52 74l.105-2.156.316-2.137c.141-.707.316-1.402.527-2.094a20.95 20.95 0 0 1 .727-2.031 21.2 21.2 0 0 1 .922-1.953 22.09 22.09 0 0 1 1.109-1.852l1.285-1.734 1.453-1.598c.508-.512 1.043-.996 1.598-1.453l1.734-1.285 1.852-1.109 1.953-.922a20.95 20.95 0 0 1 2.031-.727l2.094-.527 2.137-.316L74 52l2.156.105 2.137.316c.707.141 1.402.316 2.094.527a20.95 20.95 0 0 1 2.031.727 21.2 21.2 0 0 1 1.953.922 22.09 22.09 0 0 1 1.852 1.109l1.734 1.285 1.598 1.453c.512.508.996 1.043 1.453 1.598l1.285 1.734 1.109 1.852.922 1.953a20.95 20.95 0 0 1 .727 2.031l.527 2.094.316 2.137L96 74zm0 0" fill="rgb(95.689392%,26.269531%,21.179199%)"/><use xlink:href="#B" fill="rgb(98.039246%,98.039246%,98.039246%)"/><g fill="rgb(0%,0%,0%)"><path d="M74 96c-.719 0-1.437-.035-2.156-.105l-2.137-.316-2.094-.527a20.95 20.95 0 0 1-2.031-.727 21.2 21.2 0 0 1-1.953-.922l-1.852-1.109-1.734-1.285-1.598-1.453c-.512-.508-.996-1.043-1.453-1.598l-1.285-1.734-1.109-1.852-.922-1.953a20.95 20.95 0 0 1-.727-2.031l-.527-2.094-.316-2.137L52 74l.105-2.156.316-2.137c.141-.707.316-1.402.527-2.094a20.95 20.95 0 0 1 .727-2.031 21.2 21.2 0 0 1 .922-1.953 22.09 22.09 0 0 1 1.109-1.852l1.285-1.734 1.453-1.598c.508-.512 1.043-.996 1.598-1.453l1.734-1.285 1.852-1.109 1.953-.922a20.95 20.95 0 0 1 2.031-.727l2.094-.527 2.137-.316L74 52l2.156.105 2.137.316c.707.141 1.402.316 2.094.527a20.95 20.95 0 0 1 2.031.727 21.2 21.2 0 0 1 1.953.922 22.09 22.09 0 0 1 1.852 1.109l1.734 1.285 1.598 1.453c.512.508.996 1.043 1.453 1.598l1.285 1.734 1.109 1.852.922 1.953a20.95 20.95 0 0 1 .727 2.031l.527 2.094.316 2.137L96 74c0 .719-.035 1.438-.109 2.156l-.316 2.133-.527 2.094-.73 2.031a21.13 21.13 0 0 1-.922 1.949 22.09 22.09 0 0 1-1.109 1.852l-1.289 1.734-1.449 1.598c-.508.512-1.043.992-1.598 1.449l-1.734 1.289-1.852 1.109a21.13 21.13 0 0 1-1.949.922l-2.031.73a22.48 22.48 0 0 1-2.094.527l-2.133.316c-.719.074-1.437.109-2.156.109zm0-40l-1.766.086-1.746.262-1.715.426-1.66.598-1.598.754-1.516.91a16.22 16.22 0 0 0-1.418 1.051l-1.309 1.188a17.16 17.16 0 0 0-1.187 1.309A16.22 16.22 0 0 0 59.035 64l-.91 1.516-.754 1.598a17.88 17.88 0 0 0-.598 1.66l-.426 1.715a17.59 17.59 0 0 0-.262 1.746A17.81 17.81 0 0 0 56 74l.086 1.766.262 1.746c.113.578.258 1.148.426 1.715l.598 1.66.754 1.598c.277.52.582 1.027.91 1.516a16.22 16.22 0 0 0 1.051 1.418 17.16 17.16 0 0 0 1.188 1.309 17.16 17.16 0 0 0 1.309 1.188A16.22 16.22 0 0 0 64 88.965c.488.328.996.633 1.516.91l1.598.754 1.66.598 1.715.426a17.59 17.59 0 0 0 1.746.262A17.81 17.81 0 0 0 74 92l1.766-.086 1.746-.262 1.715-.426 1.66-.598 1.598-.754c.52-.277 1.027-.582 1.516-.91a16.22 16.22 0 0 0 1.418-1.051l1.309-1.187a17.16 17.16 0 0 0 1.188-1.309A16.22 16.22 0 0 0 88.965 84c.328-.488.633-.996.91-1.516l.754-1.598a17.88 17.88 0 0 0 .598-1.66l.426-1.715a17.59 17.59 0 0 0 .262-1.746A17.81 17.81 0 0 0 92 74l-.086-1.766a17.59 17.59 0 0 0-.262-1.746c-.113-.578-.258-1.148-.426-1.715l-.598-1.66-.754-1.598c-.277-.52-.582-1.027-.91-1.516a16.22 16.22 0 0 0-1.051-1.418l-1.187-1.309a17.16 17.16 0 0 0-1.309-1.187A16.22 16.22 0 0 0 84 59.035c-.488-.328-.996-.633-1.516-.91s-1.051-.527-1.598-.754l-1.66-.598-1.715-.426a17.59 17.59 0 0 0-1.746-.262L74 56zm0 0"/><use xlink:href="#B"/><path d="M18 88c-.301 0-.586-.062-.859-.191s-.5-.312-.691-.543-.32-.496-.391-.785-.078-.586-.02-.879l5.789-28.953L.586 35.414a1.94 1.94 0 0 1-.551-.961c-.09-.375-.07-.746.051-1.109s.336-.668.633-.91.641-.387 1.02-.434l28.969-3.836L44.211 1.105c.094-.156.203-.297.332-.422s.273-.234.43-.324.324-.156.496-.203.352-.07.535-.07.355.023.531.07.34.113.496.203.301.195.43.324.238.266.332.422L61.297 28.18 90.262 32c.375.051.711.195 1.008.438a1.97 1.97 0 0 1 .625.902c.121.363.141.73.055 1.102a1.94 1.94 0 0 1-.539.957L79.137 47.676c-.187.184-.406.32-.648.418a2.01 2.01 0 0 1-.758.145c-.262-.004-.516-.055-.758-.156a2.03 2.03 0 0 1-1.07-1.07c-.102-.242-.152-.496-.156-.758a2.01 2.01 0 0 1 .145-.758c.094-.242.234-.461.418-.648l9.414-9.414L59.715 32c-.328-.043-.629-.16-.898-.355a1.97 1.97 0 0 1-.629-.734L46 6.48 33.813 30.914a1.97 1.97 0 0 1-.629.734c-.27.191-.57.309-.898.352l-26 3.441 19.137 19.133c.234.238.402.516.496.836s.113.641.051.969l-5.199 26 24.344-12.172c.605-.312 1.211-.312 1.816 0 .238.125.445.285.617.492a2 2 0 0 1 .391.688c.086.254.117.516.098.781a2.01 2.01 0 0 1-.203.766c-.289.563-.742.914-1.359 1.055L18.895 87.789A1.97 1.97 0 0 1 18 88zm0 0"/></g><defs ><path id="B" d="M70 84a1.93 1.93 0 0 1-1.414-.586l-8-8a1.96 1.96 0 0 1-.422-.645c-.098-.246-.145-.5-.141-.762a1.93 1.93 0 0 1 .156-.754c.102-.242.242-.457.43-.641s.398-.328.641-.43a1.93 1.93 0 0 1 .754-.156c.262-.004.516.043.762.141a1.96 1.96 0 0 1 .645.422L70 79.172 84.586 64.59c.184-.195.402-.344.648-.449s.504-.16.77-.164a2.04 2.04 0 0 1 .777.148c.246.102.465.25.656.438s.336.41.438.656a2.04 2.04 0 0 1 .148.777c-.004.266-.059.523-.164.77s-.254.465-.449.648l-16 16c-.387.391-.859.586-1.41.586zm0 0"/></defs></svg>